# xmcd CD database file
#
# Track frame offsets:
#	150
#	20170
#	40310
#	60437
#	81545
#	103897
#	122940
#	142645
#
# Disc length: 2182 seconds
#
# Revision: 0
# Processed by: cddbd v1.5.2PL0 Copyright (c) Steve Scherf et al.
# Submitted via: CDex 1.70beta2
#
DISCID=6d088408
DTITLE=LUIS "PERICO" ORTIZ  - THE MAN HIS TRUMPET AND HIS MUSIC....ARE BACK!
DYEAR=1992
DGENRE=Salsa
TTITLE0=LLAMAME, LLAMAME
TTITLE1=SIMPLEMENTE LA MEJOR DE TODAS
TTITLE2=MIRA QUE BONITA SE VE
TTITLE3="D" MAMBO
TTITLE4=MI ROSA BLANCA
TTITLE5=EL SE DA CUENTA
TTITLE6=ES MI HIJO Y GANADOR
TTITLE7=TODO ESTA QUERIDO
EXTD=YEAR: 1992
EXTT0=
EXTT1=
EXTT2=
EXTT3=
EXTT4=
EXTT5=
EXTT6=
EXTT7=
PLAYORDER=
